<?xml version="1.0" encoding="UTF-8" standalone="no"?>
<svg
   xmlns:dc="http://purl.org/dc/elements/1.1/"
   xmlns:cc="http://creativecommons.org/ns#"
   xmlns:rdf="http://www.w3.org/1999/02/22-rdf-syntax-ns#"
   xmlns:svg="http://www.w3.org/2000/svg"
   xmlns="http://www.w3.org/2000/svg"
   xmlns:sodipodi="http://sodipodi.sourceforge.net/DTD/sodipodi-0.dtd"
   xmlns:inkscape="http://www.inkscape.org/namespaces/inkscape"
   width="3000"
   height="2000"
   viewBox="0 -410 3080 1900"
   id="svg2"
   sodipodi:version="0.32"
   inkscape:version="0.48.5 r10040"
   sodipodi:docname="Zeta_uc_lc.svg"
   inkscape:output_extension="org.inkscape.output.svg.inkscape"
   version="1.0">
  <metadata
     id="metadata15">
    <rdf:RDF>
      <cc:Work
         rdf:about="">
        <dc:format>image/svg+xml</dc:format>
        <dc:type
           rdf:resource="http://purl.org/dc/dcmitype/StillImage" />
        <dc:title></dc:title>
      </cc:Work>
    </rdf:RDF>
  </metadata>
  <defs
     id="defs13" />
  <sodipodi:namedview
     inkscape:window-height="848"
     inkscape:window-width="1280"
     inkscape:pageshadow="2"
     inkscape:pageopacity="0.0"
     guidetolerance="10.0"
     gridtolerance="10.0"
     objecttolerance="10.0"
     borderopacity="1.0"
     bordercolor="#666666"
     pagecolor="#ffffff"
     id="base"
     inkscape:zoom="0.19947368"
     inkscape:cx="1540"
     inkscape:cy="1351.0554"
     inkscape:window-x="10"
     inkscape:window-y="24"
     inkscape:current-layer="svg2"
     width="3000px"
     height="2000px"
     inkscape:showpageshadow="false"
     showgrid="false"
     inkscape:window-maximized="0" />
  <text
     xml:space="preserve"
     style="font-size:12px;font-style:normal;font-weight:normal;fill:#000000;fill-opacity:1;stroke:none;stroke-width:1px;stroke-linecap:butt;stroke-linejoin:miter;stroke-opacity:1;font-family:Lello"
     x="-471.24011"
     y="-946.41162"
     id="text2171"><tspan
       sodipodi:role="line"
       id="tspan2173"
       x="-471.24011"
       y="-946.41162" /></text>
  <path
     style="fill:#41b883;fill-opacity:1;stroke:none"
     d="m 372.48182,1038.8544 c 1.48201,-12.0479 123.30676,-189.20106 435.47429,-633.25121 238.37919,-339.08811 433.41669,-618.92517 433.41669,-621.8601 0,-3.64149 -82.9561,-4.66271 -261.20404,-3.2155 -277.77534,2.25529 -290.38617,3.31753 -339.40429,28.58907 -29.56739,15.24361 -57.23423,44.62552 -71.97912,76.44109 -13.22085,28.5271 -37.68174,118.58611 -37.68174,138.73494 0,10.59399 -2.45903,12.20724 -18.60712,12.20724 l -18.60712,0 3.10395,-27.02111 c 1.70717,-14.86161 8.04328,-89.55568 14.08024,-165.98682 6.03697,-76.43114 11.48091,-139.5563 12.09765,-140.27815 0.61674,-0.72184 224.7919,-0.72184 498.16709,0 l 497.0457,1.31245 -444.5559,635.63943 -444.55593,635.63941 304.76363,1.3619 c 332.7541,1.4869 349.1778,0.3664 408.909,-27.8906 66.101,-31.2709 106.0718,-86.9621 151.267,-210.7598 14.0858,-38.5838 16.1737,-41.52602 27.8795,-39.28829 6.9595,1.33035 12.6536,5.55529 12.6536,9.38866 0,7.15573 -54.2727,314.56579 -59.2115,335.38429 l -2.7471,11.5805 -551.18118,0 -551.18093,0 2.05763,-16.7274 0,0 z"
     id="path2984"
     inkscape:connector-curvature="0" />
  <path
     style="fill:#41b883;fill-opacity:1"
     d="m 2156.3231,1868.3656 c -41.2343,-9.825 -67.2759,-38.7148 -67.7794,-75.1924 -0.8573,-62.1231 37.0865,-78.1403 126.502,-53.3999 60.786,16.8188 90.8088,20.0904 120.0325,13.0797 52.3891,-12.5679 89.2874,-56.8754 100.7419,-120.9708 11.3217,-63.3525 -9.1626,-118.4477 -51.6935,-139.0365 -38.1867,-18.4859 -68.9815,-21.2442 -196.9234,-17.6384 -132.4913,3.7341 -167.2385,0.3585 -223.0871,-21.6723 -113.1156,-44.6211 -176.3866,-142.8962 -195.9523,-304.3607 -7.0403,-58.0994 -3.4685,-178.23925 7.3154,-246.06083 29.4079,-184.95097 109.3841,-351.56812 240.633,-501.31927 l 35.1504,-40.10554 -32.2936,-3.86813 c -63.0272,-7.54941 -120.5686,-47.48469 -134.2591,-93.17948 -23.9388,-79.90056 18.4563,-147.14683 115.6627,-183.462266 l 33.75,-12.608659 7.8011,15.085783 c 7.6955,14.881332 7.5873,15.203016 -7.9837,23.736042 -54.9526,30.11461 -75.6339,56.52269 -78.826,100.65344 -3.8706,53.50953 24.0951,92.9496 77.2509,108.94713 41.0507,12.35445 50.0282,10.06769 83.9835,-21.39235 111.0387,-102.87878 234.3618,-177.92946 294.1913,-179.0358 35.4125,-0.65484 44.8693,6.4271 44.8693,33.60124 0,82.19026 -136.6004,172.60897 -308.3114,204.07782 -34.9314,6.40176 -35.2467,6.60598 -68.7695,44.53718 -120.1443,135.94422 -191.9353,287.36925 -220.0914,464.22732 -9.4572,59.40413 -8.3893,206.90337 1.8235,251.86227 21.1773,93.2271 71.0265,150.7094 148.8756,171.672 40.4041,10.8797 100.5825,13.9985 190.0225,9.8483 140.979,-6.5418 190.2175,4.2184 234.1309,51.1653 47.2462,50.51 70.7125,129.7249 65.8568,222.3123 -3.5241,67.1964 -12.2994,102.4942 -39.0795,157.193 -35.2769,72.0539 -89.6811,116.2051 -167.8146,136.1883 -39.5721,10.1208 -104.4598,12.5667 -135.7288,5.1162 l 0,0 z"
     id="path3754"
     inkscape:connector-curvature="0"
     transform="matrix(1.0266667,0,0,1.0266667,0,-486.66667)" />
  <path
     style="fill:#418183;fill-opacity:1"
     d="m 2137.7743,1857.5746 c -31.4738,-15.5792 -43.8165,-35.6694 -43.8165,-71.32 0,-25.844 1.6421,-30.6724 14.0658,-41.3588 18.757,-16.1341 51.8453,-16.0159 119.7177,0.4276 67.857,16.4397 99.7749,16.3331 133.4459,-0.4456 44.0751,-21.9636 70.933,-65.5562 78.5372,-127.4722 7.3517,-59.8603 -15.5111,-107.8583 -61.6333,-129.3929 l -28.4605,-13.2885 -167.9419,-2.8882 c -164.5452,-2.8297 -168.6256,-3.1475 -201.7387,-15.7086 -158.6943,-60.1994 -227.4138,-212.2711 -209.8299,-464.34008 15.075,-216.10455 89.0479,-395.43302 236.6046,-573.58772 24.5415,-29.63058 44.621,-54.79955 44.621,-55.93103 0,-1.13149 -15.2267,-4.70885 -33.837,-7.9497 -56.2139,-9.78924 -98.5641,-35.69049 -123.0509,-75.2577 -14.4513,-23.35126 -15.4316,-84.49453 -1.7596,-109.75465 14.4151,-26.63304 49.0149,-57.06605 84.6124,-74.422713 47.6176,-23.217468 55.9715,-24.558522 62.5835,-10.046658 5.1276,11.253776 3.3515,13.430389 -27.8619,34.145511 -49.5119,32.85917 -68.8642,76.56123 -55.7415,125.87748 12.057,45.31127 47.7951,73.15469 99.9694,77.88569 28.1371,2.55138 28.2701,2.4974 60.0384,-24.3688 145.7008,-123.21813 234.8707,-176.28147 297.4252,-176.99215 31.8364,-0.3617 38.468,4.56164 38.6006,28.6574 0.2592,47.07529 -60.268,109.52193 -145.204,149.80887 -45.8015,21.72461 -79.6689,33.01154 -140.4712,46.81454 l -52.6385,11.94971 -30.0792,31.67938 c -91.3662,96.22697 -164.5918,226.54528 -202.2363,359.91631 -25.5241,90.42988 -28.3706,114.3213 -28.3706,238.12666 0,97.74685 1.4032,119.85075 9.2153,145.16845 26.8961,87.166 71.989,133.6307 151.5822,156.1938 24.5332,6.9547 55.884,8.5389 180.0996,9.1006 139.7474,0.632 152.2174,1.4172 176.1233,11.0908 53.5945,21.6871 86.0649,59.9718 110.408,130.1782 12.3413,35.5926 13.7091,46.3499 13.6356,107.2391 -0.1,82.6069 -8.247,119.4748 -39.9804,180.9165 -49.0798,95.0276 -127.6902,139.9331 -244.9468,139.9239 -41.0962,-0 -54.2506,-1.9436 -71.687,-10.5745 z"
     id="path3756"
     inkscape:connector-curvature="0"
     transform="matrix(1.0266667,0,0,1.0266667,0,-486.66667)" />
</svg>
